<svg
   viewBox="0 0 132.29167 7.1510302"
   id="svg1"
   xmlns="http://www.w3.org/2000/svg">
  
    <g
     id="layer1"
     transform="translate(-19.843795,-137.45468)">
    <path
       fill="#231f20"
       d="m 82.379764,137.65021 c 0,0 -3.178042,2.41644 -3.227783,2.45242 -0.04578,-0.036 -3.345259,-2.45242 -3.345259,-2.45242 h -4.029999 c 0,0 4.889498,3.8186 4.920719,3.84069 0,0.0406 0.0031,2.92934 0.0031,2.92934 h 3.472126 c 0,0 -0.0031,-2.9468 -0.0031,-2.9857 0.02976,-0.025 4.55824,-3.7842 4.55824,-3.7842 h -2.348044 z"
       id="path4"
       style="stroke-width:0.132291" />
    <polygon
       fill="#231f20"
       points="651.199,1.466 651.199,52.652 737.004,52.652 737.004,43.295 677.438,43.295 677.438,1.466 "
       id="polygon4"
       transform="matrix(0.13229162,0,0,0.13229162,19.843795,137.45468)" />
    <polygon
       fill="#231f20"
       points="776.813,1.454 776.813,52.652 864.291,52.652 864.291,43.577 802.406,43.577 802.406,31.041 861.994,31.053 861.994,22.214 802.406,22.214 802.406,10.657 863.193,10.657 863.193,1.466 "
       id="polygon5"
       transform="matrix(0.13229162,0,0,0.13229162,19.843795,137.45468)" />
    <polygon
       fill="#231f20"
       points="157.237,1.489 131.008,1.489 131.008,52.664 157.237,52.664 157.237,31.831 202.833,31.831 202.833,52.664 229.102,52.664 229.102,1.489 202.833,1.489 202.833,22.334 157.237,22.334 "
       id="polygon6"
       transform="matrix(0.13229162,0,0,0.13229162,19.843795,137.45468)" />
    <path
       fill="#231f20"
       d="m 55.818384,144.42169 h 3.473582 c 0,0 -0.0061,-5.38705 0,-5.51987 2.988864,-0.23733 5.16268,0.16259 5.16268,0.85262 0,0.53578 -1.278466,1.13268 -4.606129,0.97168 0.802084,0.72271 4.170361,3.69557 4.170361,3.69557 h 4.410867 c 0,0 -3.269852,-2.39355 -4.212562,-3.0308 2.216678,-0.19235 3.584309,-0.96017 3.584309,-1.812 0,-0.95779 -1.151731,-1.92564 -4.94903,-1.92564 l -7.03421,-0.003 v 6.77149 z"
       id="path6"
       style="stroke-width:0.132291" />
    <path
       fill="#231f20"
       d="m 139.52168,144.4201 h 3.47609 c 0,0 -0.006,-5.38705 -0.003,-5.51987 2.989,-0.23733 5.16572,0.16405 5.16572,0.85421 0,0.53419 -1.27621,1.13268 -4.60851,0.9701 0.80447,0.72429 4.17036,3.69702 4.17036,3.69702 l 4.41312,-0.001 c 0,0 -3.26972,-2.39197 -4.21481,-3.03067 2.21668,-0.19235 3.5814,-0.95872 3.5814,-1.81068 0,-0.95779 -1.14657,-1.92709 -4.94599,-1.92709 l -7.03434,-0.002 z"
       id="path7"
       style="stroke-width:0.132291" />
    <path
       fill="#231f20"
       d="m 88.467427,139.43231 c 0,1.19843 1.024334,1.75326 3.503347,2.10212 0.48088,0.0688 1.201338,0.16721 2.596752,0.32662 1.254655,0.1405 2.036365,0.26869 2.036365,0.65802 0,0.22834 -0.17423,0.80526 -2.973784,0.80526 -2.469752,0 -4.490903,-0.43431 -4.927465,-0.53419 0.0029,0 -0.344752,1.41578 -0.344752,1.4142 0.335624,0.0488 2.775214,0.40137 5.415887,0.40137 3.341683,0 6.573043,-0.57018 6.573043,-2.23626 0,-1.14935 -1.132685,-1.76318 -3.474374,-2.05859 -1.041005,-0.13123 -2.143125,-0.26498 -2.918489,-0.33655 -1.12342,-0.10914 -1.81967,-0.24355 -1.81967,-0.65498 0,-0.34647 0.476249,-0.59227 2.680494,-0.59227 2.082135,0 3.889504,0.33589 4.301989,0.40773 l 0.271595,-1.28165 c -0.5756,-0.0733 -3.141659,-0.39846 -5.599243,-0.39846 -2.103701,0 -5.321695,0.2794 -5.321695,1.97763"
       id="path8"
       style="stroke-width:0.132291" />
    <path
       fill="#231f20"
       d="m 19.843795,141.03595 c 0,2.3958 2.520288,3.56963 7.45794,3.56963 1.720982,0 3.652043,-0.26102 3.978803,-0.30136 l 0.304535,-1.37848 c -0.42373,0.0405 -2.194453,0.27794 -3.781291,0.27794 -2.882767,0 -4.534427,-0.64201 -4.534427,-2.16773 0,-1.52268 1.65166,-2.16852 4.579406,-2.16852 1.588293,0 3.323298,0.21761 3.73618,0.27847 l -0.304403,-1.37901 c -0.492257,-0.0573 -1.756965,-0.30004 -3.895723,-0.30004 -4.905506,1.4e-4 -7.54102,1.17409 -7.54102,3.5691"
       id="path9"
       style="stroke-width:0.132291" />
  </g>
</svg>
