<svg id="Layer_1" xmlns="http://www.w3.org/2000/svg" x="0px" y="0px"
	 viewBox="0 0 1366 492" style="enable-background:new 0 0 1366 492;">
<g>
	<g>
		<g>
			<path d="M665.39,201.99l-0.02,53.19l-1.6-1.9c-19.12-22.54-39.16-46.15-39.6-46.65l-0.42-0.49
				c-1.55-1.77-3.67-4.19-7.4-4.2l-12.64-0.01l-0.03,87.28l19.54-0.01l0.02-54.66c28.48,33.51,42.18,49.64,42.59,50.11
				c1.74,1.92,4.55,4.51,8.72,4.58h10.38l0.02-87.25H665.39z" style="fill:#231F20"/>
			<path d="M1337.47,202.14l-0.01,53.2l-1.62-1.91c-19.33-22.79-39.14-46.16-39.6-46.66l-0.44-0.5
				c-1.54-1.76-3.66-4.17-7.38-4.18l-12.64-0.01l-0.02,87.28l19.52,0.01l0.02-54.67c30.26,35.61,42.24,49.67,42.6,50.1
				c1.72,1.92,4.51,4.5,8.69,4.57l10.38,0.01l0.02-87.25H1337.47z" style="fill:#231F20"/>
			<rect x="489.14" y="201.94" width="19.75" height="87.25" style="fill:#231F20"/>
			<path d="M1033.43,244.7c-0.39-25.08-20.94-43.97-47.79-43.98c-26.93-0.01-48.04,19.83-48.05,45.17
				c-0.01,25.49,20.55,44.72,47.8,44.71c26.51,0.02,47.62-19.37,48.03-44.06C1033.55,245.9,1033.55,245.25,1033.43,244.7z
				 M985.62,272.92c-15.91-0.01-27.91-11.81-27.91-27.48c0.01-15.4,11.91-27.02,27.69-27.01c15.9,0,27.9,11.81,27.9,27.47
				C1013.29,261.31,1001.4,272.93,985.62,272.92z" style="fill:#231F20"/>
			<polygon points="1144.05,271.63 1144.07,202.1 1124.29,202.09 1124.27,289.33 1191.23,289.35 1191.23,271.64 			" style="fill:#231F20"/>
			<g>
				<path d="M400.36,289.16l-66.97-0.01l0.02-87.25h19.77l-0.02,69.53l47.2,0.02V289.16z" style="fill:#231F20"/>
			</g>
		</g>
		<path d="M841.65,260.06l-3.57,3.16c-6.78,5.99-13.41,9.99-23.79,9.98c-15.49-0.01-27.62-12.21-27.61-27.79
			c0-15.59,11.87-27.33,27.62-27.33c8.62,0,15.53,2.82,23.07,9.44l3.72,3.28l13.56-13.46l-3.75-3.25
			c-8.15-7.11-18.22-13.7-36.46-13.71c-26.86-0.02-47.89,19.96-47.89,45.47c-0.01,25.67,20.41,45.04,47.5,45.04
			c18.76,0,29.45-7.66,37.46-15.16l3.63-3.42L841.65,260.06z" style="fill:#231F20"/>
	</g>
	<path d="M148.96,245.65c-0.16-9.63-0.16-9.3-0.21-12.88c0-0.01,0-0.01,0-0.01c-1.03-91.18-12.68-166.58-18.28-200.49
		c-2.3-13.91-3.35-15.29-18.18-17.48c-7.45-1.1-14.13-1.87-20.51-2.33v0.01l0,0.01c-5.73-0.4-13.28-0.43-13.28-0.43
		s-7.59,0.04-13.32,0.43l0-0.01v-0.01c-6.38,0.46-13.06,1.23-20.51,2.33c-14.83,2.19-15.88,3.57-18.18,17.48
		C20.91,66.18,9.27,141.58,8.24,232.76c0,0.01,0,0.01,0,0.01c-0.05,3.57-0.04,3.25-0.21,12.88c0.16,9.63,0.16,9.31,0.21,12.88
		c0,0,0,0.01,0,0.02c1.03,91.18,12.67,166.57,18.27,200.49c2.3,13.91,3.34,15.29,18.18,17.48c6.72,0.99,12.8,1.7,18.61,2.16
		c0.02,0,0.04,0.02,0.06,0.02c5.77,0.54,15.15,0.58,15.15,0.58s9.38-0.04,15.16-0.58c0.03,0,0.06-0.02,0.08-0.02
		c5.79-0.46,11.85-1.17,18.55-2.15c14.83-2.19,15.88-3.57,18.18-17.48c5.59-33.92,17.24-109.31,18.28-200.49c0-0.01,0-0.01,0-0.02
		C148.8,254.96,148.79,255.28,148.96,245.65z M91.67,22.39c1.41,8.48,1.82,10.66,2.52,15.16c0.36,2.31,0.68,2.64,1.82,2.8l0.01,0.01
		c1.58,0.17,3.15,0.35,4.83,0.57c8.96,1.14,12.02,1.45,14.46,13.17c1.81,8.67,16.76,81.78,18.29,175.44l0.02,0.01
		c0,0.15,0,0.37,0,0.73c-0.03,1.53,0.94,2.12,2.58,2.72c3.16,1.17,4.55,1.58,6.55,2.4c0.99,0.41,1.57,1.05,2.2,3.23
		c-7.7-0.56-22.7-1.76-32.31-2.3c-19.25-1.08-20.86-5.82-20.86-20.19c0-6.69-1.17-123.96-3.96-197.79
		C91.39,19.11,91.67,22.39,91.67,22.39z M41.69,54.11c2.44-11.73,5.49-12.04,14.46-13.17c1.68-0.22,3.25-0.4,4.83-0.57l0-0.01
		c1.17-0.16,1.49-0.47,1.86-2.8c0.7-4.5,1.11-6.68,2.52-15.16c0,0,0.27-3.28,3.86-4.03c-2.75,73.94-3.97,191.51-3.97,197.79
		c0,14.38-1.61,19.11-20.85,20.19c-9.69,0.54-23.81,1.65-32.34,2.26c0.63-2.15,1.21-2.79,2.19-3.2c1.99-0.83,3.39-1.23,6.54-2.4
		c1.64-0.61,2.61-1.2,2.58-2.72c0-0.36,0-0.58,0-0.73l0.02,0C24.93,135.89,39.88,62.78,41.69,54.11z M65.36,468.92
		c-1.41-8.48-1.82-10.66-2.52-15.16c-0.36-2.33-0.69-2.64-1.85-2.8l-0.01-0.02c-1.58-0.17-3.15-0.36-4.83-0.57
		c-8.97-1.15-12.02-1.45-14.46-13.18c-1.81-8.68-16.76-81.79-18.29-175.43l-0.02-0.01c0-0.16,0-0.38,0-0.74
		c0.03-1.53-0.94-2.11-2.58-2.71c-3.16-1.17-4.55-1.58-6.54-2.41c-0.98-0.41-1.56-1.03-2.18-3.15c9.64,0.68,23.25,1.71,32.33,2.22
		c19.24,1.08,20.85,5.82,20.85,20.19c0,6.76,1.17,124.57,3.98,197.82C65.63,472.22,65.36,468.92,65.36,468.92z M115.3,437.19
		c-2.44,11.72-5.5,12.03-14.46,13.18c-1.68,0.22-3.25,0.4-4.83,0.57L96,450.97c-1.13,0.16-1.46,0.49-1.82,2.79
		c-0.7,4.51-1.11,6.68-2.52,15.16c0,0-0.27,3.27-3.84,4.03c2.79-73.07,3.95-191.02,3.95-197.8c0-14.38,1.61-19.11,20.86-20.19
		c9.19-0.52,22.68-1.6,32.31-2.28c-0.63,2.17-1.22,2.8-2.2,3.21c-1.99,0.83-3.39,1.24-6.55,2.41c-1.64,0.6-2.61,1.19-2.58,2.71
		c0,0.36,0,0.58,0,0.74l-0.02,0.01C132.06,355.4,117.1,428.51,115.3,437.19z" style="fill:#231F20"/>
</g>
</svg>
